
<svg  viewBox="0 0 32 32" version="1.1" xmlns="http://www.w3.org/2000/svg" xmlns:xlink="http://www.w3.org/1999/xlink">
    <g id="Page-1" stroke="none" stroke-width="1" fill="none" fill-rule="evenodd">
        <g id="New-FB-Icons" transform="translate(-304.000000, -468.000000)" fill="#1778F2">
            <g id="facebook-icon-36" transform="translate(302.000000, 466.000000)">
                <path d="M34,18.0977814 C34,9.2072157 26.8365625,2 18,2 C9.1634375,2 2,9.2072157 2,18.0977814 C2,26.1326495 7.85096875,32.792352 15.5,34 L15.5,22.7510464 L11.4375,22.7510464 L11.4375,18.0977814 L15.5,18.0977814 L15.5,14.551239 C15.5,10.5167325 17.8886875,8.28819588 21.5434375,8.28819588 C23.2939688,8.28819588 25.125,8.60260567 25.125,8.60260567 L25.125,12.5641691 L23.1074375,12.5641691 C21.1198438,12.5641691 20.5,13.8050502 20.5,15.0780955 L20.5,18.0977814 L24.9375,18.0977814 L24.228125,22.7510464 L20.5,22.7510464 L20.5,34 C28.1490313,32.792352 34,26.1326495 34,18.0977814" id="Fill-1"></path>
            </g>
        </g>
    </g>
</svg>