<?xml version="1.0" encoding="utf-8"?>
<!-- Generator: Adobe Illustrator 22.1.0, SVG Export Plug-In . SVG Version: 6.00 Build 0)  -->
<svg version="1.1" id="Layer_1" xmlns="http://www.w3.org/2000/svg" xmlns:xlink="http://www.w3.org/1999/xlink" x="0px" y="0px"
	 viewBox="0 0 16 16" style="enable-background:new 0 0 16 16;" xml:space="preserve">
<style type="text/css">
	.st0{fill:#D73676;}
</style>
<g>
	<path class="st0" d="M8,2.2613c1.8691,0,2.0905,0.0071,2.8286,0.0408c0.6825,0.0311,1.0531,0.1452,1.2998,0.241
		c0.3267,0.127,0.5599,0.2787,0.8049,0.5236c0.245,0.245,0.3967,0.4781,0.5236,0.8049c0.0959,0.2467,0.2099,0.6173,0.241,1.2998
		C13.7316,5.9095,13.7387,6.1309,13.7387,8s-0.0071,2.0905-0.0408,2.8286c-0.0311,0.6825-0.1452,1.0531-0.241,1.2998
		c-0.127,0.3267-0.2787,0.5599-0.5236,0.8049c-0.245,0.245-0.4781,0.3967-0.8049,0.5236c-0.2467,0.0959-0.6173,0.2099-1.2998,0.241
		C10.0906,13.7316,9.8692,13.7387,8,13.7387s-2.0906-0.0071-2.8286-0.0408c-0.6825-0.0311-1.0531-0.1452-1.2998-0.241
		c-0.3267-0.127-0.5599-0.2787-0.8049-0.5236s-0.3967-0.4781-0.5236-0.8049c-0.0959-0.2467-0.2099-0.6173-0.241-1.2998
		C2.2684,10.0905,2.2613,9.8691,2.2613,8s0.0071-2.0905,0.0408-2.8286c0.0311-0.6825,0.1452-1.0531,0.241-1.2998
		c0.127-0.3267,0.2787-0.5599,0.5236-0.8049c0.2449-0.245,0.4781-0.3967,0.8049-0.5236c0.2467-0.0959,0.6173-0.2099,1.2998-0.241
		C5.9095,2.2684,6.1309,2.2613,8,2.2613 M8,1C6.0989,1,5.8605,1.008,5.1139,1.0421C4.3688,1.0761,3.86,1.1944,3.4147,1.3675
		C2.9544,1.5464,2.564,1.7857,2.1749,2.1749C1.7857,2.564,1.5464,2.9544,1.3675,3.4147C1.1945,3.86,1.0761,4.3688,1.0421,5.1139
		C1.008,5.8605,1,6.0989,1,8s0.008,2.1395,0.0421,2.8861c0.034,0.7451,0.1523,1.2539,0.3254,1.6992
		c0.1789,0.4603,0.4182,0.8507,0.8074,1.2398c0.3892,0.3892,0.7795,0.6285,1.2399,0.8074c0.4453,0.173,0.9541,0.2914,1.6992,0.3254
		C5.8605,14.9919,6.0989,15,8,15s2.1395-0.008,2.8861-0.0421c0.7451-0.034,1.2539-0.1523,1.6992-0.3254
		c0.4603-0.1789,0.8507-0.4182,1.2398-0.8074c0.3892-0.3892,0.6285-0.7795,0.8074-1.2398c0.173-0.4453,0.2914-0.9541,0.3254-1.6992
		C14.992,10.1395,15,9.9011,15,8s-0.008-2.1395-0.0421-2.8861c-0.034-0.7451-0.1523-1.2539-0.3254-1.6992
		c-0.1789-0.4603-0.4182-0.8507-0.8074-1.2399c-0.3892-0.3892-0.7795-0.6285-1.2398-0.8074
		c-0.4453-0.1731-0.9541-0.2914-1.6992-0.3254C10.1395,1.008,9.9011,1,8,1L8,1z"/>
	<path class="st0" d="M8,4.4054C6.0148,4.4054,4.4054,6.0148,4.4054,8S6.0148,11.5946,8,11.5946S11.5946,9.9852,11.5946,8
		S9.9852,4.4054,8,4.4054z M8,10.3333c-1.2887,0-2.3333-1.0447-2.3333-2.3333c0-1.2887,1.0447-2.3333,2.3333-2.3333
		S10.3333,6.7113,10.3333,8S9.2887,10.3333,8,10.3333z"/>
	<circle class="st0" cx="11.7366" cy="4.2634" r="0.84"/>
</g>
</svg>
