<?xml version="1.0" encoding="utf-8"?>
<!-- Generator: Adobe Illustrator 21.1.0, SVG Export Plug-In . SVG Version: 6.00 Build 0)  -->
<svg version="1.1" id="Layer_1" xmlns="http://www.w3.org/2000/svg" xmlns:xlink="http://www.w3.org/1999/xlink" x="0px" y="0px"
	 viewBox="0 0 16 16" style="enable-background:new 0 0 16 16;" xml:space="preserve">
<style type="text/css">
	.st0{fill:#FF0000;}
	.st1{fill:#3D5A98;}
	.st2{fill:#1DA1F2;}
	.st3{display:none;fill:#1DA1F2;}
	.st4{display:none;}
	.st5{display:inline;fill:#FF0000;}
	.st6{fill:#0077B5;}
	.st7{fill-rule:evenodd;clip-rule:evenodd;fill:#5181B8;}
	.st8{fill:#030303;}
	.st9{fill:#D34836;}
</style>
<g>
	<g>
		<path class="st6" d="M13.96372,1.00019H2.03334C1.46322,1.00019,1,1.45206,1,2.00898v11.98075
			c0,0.5575,0.46322,1.01008,1.03334,1.01008h11.93038c0.57108,0,1.03628-0.45259,1.03628-1.01008V2.00898
			C15,1.45206,14.53479,1.00019,13.96372,1.00019z M5.15225,12.92972H3.0756v-6.6811h2.07665V12.92972z M4.11435,5.33534
			c-0.66554,0-1.20414-0.5395-1.20414-1.20418c0-0.66407,0.53861-1.20357,1.20414-1.20357c0.66392,0,1.20337,0.5395,1.20337,1.20357
			C5.31773,4.79584,4.77827,5.33534,4.11435,5.33534z M12.92962,12.92972H10.8546V9.68065
			c0-0.77472-0.01424-1.77136-1.07911-1.77136c-1.08033,0-1.24619,0.84397-1.24619,1.71534v3.30509H6.45464v-6.6811h1.99148v0.91291
			h0.02782c0.27722-0.52527,0.95463-1.07901,1.9648-1.07901c2.10266,0,2.49087,1.38386,2.49087,3.18257V12.92972z"/>
	</g>
</g>
</svg>
