<svg version="1.1" viewBox="0.0 0.0 95.0 32.0" fill="none" stroke="none" stroke-linecap="square" stroke-miterlimit="10" xmlns:xlink="http://www.w3.org/1999/xlink" xmlns="http://www.w3.org/2000/svg"><clipPath id="p.0"><path d="m0 0l95.0 0l0 32.0l-95.0 0l0 -32.0z" clip-rule="nonzero"/></clipPath><g clip-path="url(#p.0)"><path fill="#000000" fill-opacity="0.0" d="m0 0l95.0 0l0 32.0l-95.0 0z" fill-rule="evenodd"/><path fill="#000000" fill-opacity="0.0" d="m7.4173226 21.54593l39.212597 0l0 4.566931l-39.212597 0z" fill-rule="evenodd"/><path fill="#000000" fill-opacity="0.0" d="m0.2519685 0.07611549l94.74016 0l0 32.0l-94.74016 0z" fill-rule="evenodd"/><path fill="#ffffff" d="m4.5013123 16.832022l0 0c0 -6.975313 5.6546087 -12.629922 12.629921 -12.629922l0 0c3.3496647 0 6.562134 1.3306484 8.930704 3.6992183c2.3685684 2.3685699 3.6992168 5.58104 3.6992168 8.930704l0 0c0 6.9753113 -5.654608 12.629921 -12.629921 12.629921l0 0c-6.975312 0 -12.629921 -5.6546097 -12.629921 -12.629921z" fill-rule="evenodd"/><path stroke="#000000" stroke-width="1.0" stroke-linejoin="round" stroke-linecap="butt" d="m4.5013123 16.832022l0 0c0 -6.975313 5.6546087 -12.629922 12.629921 -12.629922l0 0c3.3496647 0 6.562134 1.3306484 8.930704 3.6992183c2.3685684 2.3685699 3.6992168 5.58104 3.6992168 8.930704l0 0c0 6.9753113 -5.654608 12.629921 -12.629921 12.629921l0 0c-6.975312 0 -12.629921 -5.6546097 -12.629921 -12.629921z" fill-rule="evenodd"/><path fill="#000000" d="m30.358812 25.37202l-3.4375 0l-5.046875 -11.1875l0 11.1875l-3.4375 0l0 -17.0625l3.4375 0l5.0625 11.203125l0 -11.203125l3.421875 0l0 17.0625z" fill-rule="nonzero"/><path fill="#000000" fill-opacity="0.0" d="m22.0 4.2021l79.46457 0l0 25.259842l-79.46457 0z" fill-rule="evenodd"/><path fill="#ffffff" d="m35.734375 23.939518q-1.84375 0 -2.828125 -1.09375q-0.984375 -1.109375 -1.0 -3.234375l0 -1.1875q0 -2.203125 0.953125 -3.453124q0.96875 -1.25 2.6875 -1.25q1.734375 0 2.578125 1.109375q0.859375 1.09375 0.875 3.421874l0 1.046875l-5.5 0l0 0.234375q0 1.59375 0.59375 2.3125q0.609375 0.71875 1.71875 0.71875q0.71875 0 1.25 -0.265625q0.546875 -0.28125 1.03125 -0.859375l0.828125 1.015625q-1.046875 1.484375 -3.1875 1.484375zm-0.1875 -8.843749q-1.0 0 -1.484375 0.6875q-0.484375 0.68749905 -0.546875 2.140624l3.875 0l0 -0.21875q-0.0625 -1.40625 -0.5 -1.999999q-0.4375 -0.609375 -1.34375 -0.609375zm9.470383 0.3125q-0.34375 -0.0625 -0.734375 -0.0625q-1.234375 0 -1.734375 1.359374l0 7.046875l-1.609375 0l0 -9.859374l1.5625 0l0.03125 1.0q0.640625 -1.171875 1.828125 -1.171875q0.390625 0 0.640625 0.125l0.015625 1.5625zm1.0801697 2.968749q0 -2.28125 0.84375 -3.468749q0.859375 -1.1875 2.453125 -1.1875q1.421875 0 2.21875 1.140625l0 -5.109375l1.609375 0l0 13.999999l-1.484375 0l-0.078125 -1.0625q-0.796875 1.25 -2.265625 1.25q-1.53125 0 -2.40625 -1.1875q-0.859375 -1.203125 -0.890625 -3.359375l0 -1.015625zm1.625 0.921875q0 1.65625 0.484375 2.4375q0.5 0.78125 1.609375 0.78125q1.203125 0 1.796875 -1.21875l0 -4.96875q-0.625 -1.187499 -1.796875 -1.187499q-1.109375 0 -1.609375 0.78125q-0.484375 0.78124905 -0.484375 2.390624l0 0.984375zm16.520874 0.25q-0.109375 2.125 -1.203125 3.265625q-1.09375 1.125 -3.078125 1.125q-1.984375 0 -3.171875 -1.515625q-1.171875 -1.515625 -1.171875 -4.125l0 -2.406249q0 -2.578125 1.203125 -4.078125q1.21875 -1.515625 3.296875 -1.515625q1.921875 0 2.96875 1.15625q1.0625 1.15625 1.15625 3.296875l-1.6875 0q-0.109375 -1.625 -0.6875 -2.3125q-0.5625 -0.6875 -1.75 -0.6875q-1.359375 0 -2.09375 1.0625q-0.71875 1.046875 -0.71875 3.109375l0 2.421874q0 2.015625 0.671875 3.09375q0.6875 1.078125 1.984375 1.078125q1.3125 0 1.875 -0.640625q0.578125 -0.65625 0.71875 -2.328125l1.6875 0zm7.107376 4.203125q-0.15625 -0.3125 -0.21875 -1.078125q-0.859375 1.265625 -2.1875 1.265625q-1.328125 0 -2.09375 -0.75q-0.75 -0.765625 -0.75 -2.125q0 -1.5 1.015625 -2.375q1.03125 -0.890625 2.8125 -0.90625l1.1875 0l0 -1.046875q0 -0.89062405 -0.40625 -1.265624q-0.390625 -0.375 -1.1875 -0.375q-0.734375 0 -1.1875 0.4375q-0.453125 0.4375 -0.453125 1.093749l-1.609375 0q0 -0.74999905 0.4375 -1.437499q0.453125 -0.6875 1.203125 -1.078125q0.765625 -0.390625 1.6875 -0.390625q1.515625 0 2.296875 0.75q0.796875 0.75 0.8125 2.187499l0 4.96875q0.015625 1.140625 0.3125 1.984375l0 0.140625l-1.671875 0zm-2.15625 -1.28125q0.59375 0 1.125 -0.328125q0.546875 -0.328125 0.796875 -0.828125l0 -2.34375l-0.921875 0q-1.140625 0.015625 -1.8125 0.515625q-0.65625 0.5 -0.65625 1.390625q0 0.828125 0.328125 1.21875q0.34375 0.375 1.140625 0.375zm6.7176666 1.28125l0 -8.546874l-1.28125 0l0 -1.3125l1.28125 0l0 -1.140625q0.03125 -1.5 0.765625 -2.34375q0.734375 -0.84375 2.078125 -0.84375q0.484375 0 0.96875 0.15625l-0.078125 1.375q-0.34375 -0.09375 -0.734375 -0.09375q-1.375 0 -1.375 1.96875l0 0.921875l1.671875 0l0 1.3125l-1.671875 0l0 8.546874l-1.625 0zm8.512329 0.1875q-1.84375 0 -2.828125 -1.09375q-0.984375 -1.109375 -1.0 -3.234375l0 -1.1875q0 -2.203125 0.953125 -3.453124q0.96875 -1.25 2.6875 -1.25q1.734375 0 2.578125 1.109375q0.859375 1.09375 0.875 3.421874l0 1.046875l-5.5 0l0 0.234375q0 1.59375 0.59375 2.3125q0.609375 0.71875 1.71875 0.71875q0.71875 0 1.25 -0.265625q0.546875 -0.28125 1.03125 -0.859375l0.828125 1.015625q-1.046875 1.484375 -3.1875 1.484375zm-0.1875 -8.843749q-1.0 0 -1.484375 0.6875q-0.484375 0.68749905 -0.546875 2.140624l3.875 0l0 -0.21875q-0.0625 -1.40625 -0.5 -1.999999q-0.4375 -0.609375 -1.34375 -0.609375z" fill-rule="nonzero"/></g></svg>