<?xml version="1.0" encoding="utf-8"?>
<!-- Generator: Adobe Illustrator 21.1.0, SVG Export Plug-In . SVG Version: 6.00 Build 0)  -->
<svg version="1.1" id="Layer_1" xmlns="http://www.w3.org/2000/svg" xmlns:xlink="http://www.w3.org/1999/xlink" x="0px" y="0px"
	 viewBox="0 0 16 16" style="enable-background:new 0 0 16 16;" xml:space="preserve">
<style type="text/css">
	.st0{fill:#FF0000;}
	.st1{fill:#3D5A98;}
	.st2{fill:#1DA1F2;}
	.st3{display:none;fill:#1DA1F2;}
	.st4{display:none;}
	.st5{display:inline;fill:#FF0000;}
	.st6{fill:#0077B5;}
	.st7{fill-rule:evenodd;clip-rule:evenodd;fill:#5181B8;}
	.st8{fill:#030303;}
	.st9{fill:#D34836;}
	.st10{fill:#BD081C;}
</style>
<g>
	<path class="st10" d="M8,16c-0.79119,0-1.54138-0.11541-2.27031-0.33409c0.3022-0.47836,0.64541-1.09339,0.81245-1.70691
		c0,0,0.09263-0.35535,0.56188-2.19894c0.27031,0.53151,1.08276,0.99924,1.94837,0.99924c2.57251,0,4.32194-2.34244,4.32194-5.48823
		c0-2.36446-2.00911-4.5839-5.07213-4.5839c-3.79195,0-5.70843,2.72969-5.70843,5c0,1.37509,0.52088,2.6044,1.63554,3.06302
		c0.17768,0.07289,0.3432,0,0.39636-0.20881c0.041-0.13516,0.12453-0.48899,0.16553-0.63478
		C4.84434,9.6978,4.82308,9.63554,4.6773,9.45862C4.35383,9.07289,4.14579,8.58314,4.14579,7.88535
		c0-2.0205,1.51101-3.83295,3.93774-3.83295c2.14579,0,3.33333,1.31207,3.33333,3.07289c0,2.30144-1.0205,4.24981-2.54214,4.24981
		c-0.83371,0-1.45786-0.68793-1.26044-1.54214C7.85421,8.82308,8.32346,7.72893,8.32346,7
		c0-0.65604-0.35535-1.20805-1.08428-1.20805c-0.85346,0-1.54138,0.88535-1.54138,2.07289c0,0,0,0.76006,0.2612,1.27031
		c-0.87623,3.70919-1.03265,4.35459-1.03265,4.35459c-0.14579,0.60289-0.1549,1.28018-0.13516,1.84358
		C1.96811,14.09264,0,11.28094,0,8c0-4.41686,3.5839-8,8-8s8,3.58314,8,8C16,12.4161,12.4161,16,8,16z"/>
</g>
</svg>
