<?xml version="1.0" encoding="utf-8"?>
<!-- Generator: Adobe Illustrator 21.1.0, SVG Export Plug-In . SVG Version: 6.00 Build 0)  -->
<svg version="1.1" id="Layer_1" xmlns="http://www.w3.org/2000/svg" xmlns:xlink="http://www.w3.org/1999/xlink" x="0px" y="0px"
	 viewBox="0 0 16 16" style="enable-background:new 0 0 16 16;" xml:space="preserve">
<style type="text/css">
	.st0{fill:#FF0000;}
	.st1{fill:#3D5A98;}
	.st2{fill:#1DA1F2;}
	.st3{display:none;fill:#1DA1F2;}
	.st4{display:none;}
	.st5{display:inline;fill:#FF0000;}
	.st6{fill:#0077B5;}
	.st7{fill-rule:evenodd;clip-rule:evenodd;fill:#5181B8;}
	.st8{fill:#030303;}
	.st9{fill:#D34836;}
</style>
<path class="st2" d="M5.03168,14.50042c6.03776,0,9.34016-5.00224,9.34016-9.34016c0-0.14208,0-0.28352-0.0096-0.42432
	C15.00469,4.27124,15.55927,3.69586,16,3.03674c-0.59912,0.26547-1.23467,0.43957-1.88544,0.51648
	c0.68528-0.41025,1.19816-1.05551,1.4432-1.81568c-0.64438,0.38237-1.34935,0.65185-2.08448,0.7968
	c-1.2432-1.32193-3.32265-1.38575-4.64458-0.14256C7.97616,3.19354,7.61443,4.38825,7.87904,5.52826
	C5.23961,5.39594,2.78046,4.14927,1.1136,2.0985C0.24232,3.59843,0.68735,5.51729,2.12992,6.48058
	C1.60751,6.4651,1.0965,6.32417,0.64,6.0697c0,0.01344,0,0.02752,0,0.0416c0.00043,1.56262,1.10192,2.9085,2.6336,3.21792
	c-0.48328,0.1318-0.99035,0.15107-1.48224,0.05632c0.43005,1.33723,1.66245,2.2533,3.06688,2.27968
	c-1.16241,0.91356-2.59836,1.40949-4.0768,1.408C0.52026,13.07272,0.25933,13.0569,0,13.02586
	c1.50121,0.96338,3.24794,1.47438,5.03168,1.472"/>
</svg>
