<?xml version="1.0" encoding="utf-8"?>
<!-- Generator: Adobe Illustrator 22.1.0, SVG Export Plug-In . SVG Version: 6.00 Build 0)  -->
<svg version="1.1" id="Layer_1" xmlns="http://www.w3.org/2000/svg" xmlns:xlink="http://www.w3.org/1999/xlink" x="0px" y="0px"
	 viewBox="0 0 16 16" style="enable-background:new 0 0 16 16;" xml:space="preserve">
<style type="text/css">
	.st0{fill:#4680C2;}
	.st1{fill:#FFFFFF;}
</style>
<g>
	<path class="st0" d="M5.851,0.9998h4.2979c3.9225,0,4.8512,0.9287,4.8512,4.8512v4.2979c0,3.9225-0.9287,4.8512-4.8512,4.8512
		H5.851c-3.9225,0-4.8512-0.9287-4.8512-4.8512V5.851C0.9998,1.9286,1.9286,0.9998,5.851,0.9998"/>
	<path class="st1" d="M12.4609,5.8214c0.0692-0.2174,0-0.3754-0.3063-0.3754H11.137c-0.2569,0-0.3754,0.1383-0.4446,0.2865
		c0,0-0.5237,1.2647-1.2548,2.0847C9.2004,8.0543,9.0918,8.1334,8.9633,8.1334c-0.0692,0-0.1581-0.079-0.1581-0.2964V5.8115
		c0-0.2569-0.079-0.3755-0.2964-0.3755H6.9082c-0.1581,0-0.2569,0.1186-0.2569,0.2371c0,0.247,0.3656,0.3063,0.4051,0.9979v1.5018
		c0,0.326-0.0593,0.3853-0.1877,0.3853c-0.3458,0-1.1856-1.2746-1.6895-2.7269C5.0804,5.5448,4.9816,5.4361,4.7247,5.4361H3.6972
		c-0.2964,0-0.3458,0.1383-0.3458,0.2865c0,0.2668,0.3458,1.6105,1.6105,3.3889c0.8398,1.2153,2.0353,1.8674,3.1123,1.8674
		c0.6521,0,0.7311-0.1482,0.7311-0.3952V9.6648c0-0.2964,0.0593-0.3458,0.2668-0.3458c0.1482,0,0.415,0.079,1.0177,0.662
		c0.6916,0.6916,0.8102,1.0078,1.1955,1.0078h1.0177c0.2964,0,0.4347-0.1482,0.3557-0.4347
		c-0.0889-0.2865-0.4249-0.7015-0.8596-1.1955c-0.2371-0.2766-0.5928-0.5829-0.7015-0.7311c-0.1482-0.1976-0.1087-0.2766,0-0.4545
		C11.0876,8.1729,12.3325,6.4142,12.4609,5.8214"/>
</g>
</svg>
