<?xml version="1.0" encoding="utf-8"?>
<!-- Generator: Adobe Illustrator 21.1.0, SVG Export Plug-In . SVG Version: 6.00 Build 0)  -->
<svg version="1.1" id="Layer_1" xmlns="http://www.w3.org/2000/svg" xmlns:xlink="http://www.w3.org/1999/xlink" x="0px" y="0px"
	 viewBox="0 0 16 16" style="enable-background:new 0 0 16 16;" xml:space="preserve">
<style type="text/css">
	.st0{fill:#FF0000;}
	.st1{fill:#3D5A98;}
	.st2{fill:#1DA1F2;}
	.st3{display:none;fill:#1DA1F2;}
	.st4{display:none;}
	.st5{display:inline;fill:#FF0000;}
	.st6{fill:#0077B5;}
	.st7{fill-rule:evenodd;clip-rule:evenodd;fill:#5181B8;}
	.st8{fill:#030303;}
	.st9{fill:#D34836;}
</style>
<path class="st0" d="M15.66569,4.12386c-0.184-0.69287-0.72616-1.23853-1.41455-1.42375C13.00334,2.36361,8,2.36361,8,2.36361
	s-5.00334,0-6.25106,0.33651c-0.6884,0.18522-1.23063,0.73088-1.41463,1.42375C0,5.37972,0,8,0,8s0,2.62028,0.33431,3.87614
	c0.184,0.69287,0.72624,1.23853,1.41463,1.42375C2.99666,13.63639,8,13.63639,8,13.63639s5.00334,0,6.25114-0.33651
	c0.68839-0.18522,1.23055-0.73088,1.41455-1.42375C16,10.62028,16,8,16,8S16,5.37972,15.66569,4.12386z M6.36361,10.37899V5.62101
	l4.18188,2.37907L6.36361,10.37899z"/>
</svg>
